<?xml version="1.0" encoding="utf-8"?>
<!-- Generator: Adobe Illustrator 16.0.0, SVG Export Plug-In . SVG Version: 6.00 Build 0)  -->
<!DOCTYPE svg PUBLIC "-//W3C//DTD SVG 1.1//EN" "http://www.w3.org/Graphics/SVG/1.1/DTD/svg11.dtd">
<svg version="1.1" id="Layer_5" xmlns="http://www.w3.org/2000/svg" xmlns:xlink="http://www.w3.org/1999/xlink" x="0px" y="0px"
	 width="100px" height="100px" viewBox="0 0 100 100" enable-background="new 0 0 100 100" xml:space="preserve">
<path d="M65.301,27.729c-5.922,0-11.308,2.328-15.301,6.11c-3.993-3.783-9.379-6.11-15.301-6.11
	c-12.28,0-22.271,9.991-22.271,22.271s9.991,22.271,22.271,22.271c5.922,0,11.308-2.328,15.301-6.11
	c3.993,3.783,9.379,6.11,15.301,6.11c12.28,0,22.271-9.991,22.271-22.271S77.581,27.729,65.301,27.729z M34.699,70.271
	c-11.178,0-20.271-9.094-20.271-20.271s9.094-20.271,20.271-20.271c5.383,0,10.27,2.123,13.902,5.558
	c-3.464,3.927-5.572,9.078-5.572,14.714s2.108,10.787,5.572,14.714C44.969,68.148,40.082,70.271,34.699,70.271z M45.029,50
	c0-5.069,1.884-9.699,4.971-13.257c3.087,3.558,4.971,8.188,4.971,13.257S53.087,59.699,50,63.257
	C46.913,59.699,45.029,55.069,45.029,50z M65.301,70.271c-5.383,0-10.27-2.123-13.902-5.558c3.464-3.927,5.572-9.078,5.572-14.714
	s-2.108-10.787-5.572-14.714c3.633-3.435,8.52-5.558,13.902-5.558c11.178,0,20.271,9.094,20.271,20.271S76.479,70.271,65.301,70.271
	z M16.93,44.21l-0.707-0.707l12.39-12.39l0.707,0.707L16.93,44.21z M16.055,49.814l-0.707-0.707l18.296-18.297l0.707,0.707
	L16.055,49.814z M42.818,48.404L24.522,66.701l-0.707-0.707l18.296-18.297L42.818,48.404z M42.818,53.894L28.507,68.207L27.8,67.5
	l14.312-14.313L42.818,53.894z M31.623,68.693l11.615-11.617l0.707,0.707L32.33,69.4L31.623,68.693z M36.289,69.112l8.714-8.716
	l0.707,0.707l-8.714,8.716L36.289,69.112z M38.495,32.085L16.131,54.45l-0.707-0.707l22.364-22.365L38.495,32.085z M42.23,32.981
	L17.43,57.783l-0.707-0.707l24.801-24.802L42.23,32.981z M45.96,34.461L19.035,61.385l-0.707-0.707l26.925-26.924L45.96,34.461z
	 M43.313,42.438L21.388,64.361l-0.707-0.707L42.605,41.73L43.313,42.438z M83.271,44.21l-12.39-12.39l0.707-0.707l12.39,12.39
	L83.271,44.21z M84.146,49.814L65.85,31.518l0.707-0.707l18.296,18.297L84.146,49.814z M58.089,47.697l18.296,18.297l-0.707,0.707
	L57.382,48.404L58.089,47.697z M58.089,53.187L72.4,67.5l-0.707,0.707L57.382,53.894L58.089,53.187z M56.962,57.076l11.615,11.617
	L67.87,69.4L56.255,57.783L56.962,57.076z M55.197,60.396l8.714,8.716l-0.707,0.707l-8.714-8.716L55.197,60.396z M62.412,31.378
	l22.364,22.365l-0.707,0.707L61.705,32.085L62.412,31.378z M58.677,32.274l24.801,24.802l-0.707,0.707L57.97,32.981L58.677,32.274z
	 M54.947,33.754l26.925,26.924l-0.707,0.707L54.24,34.461L54.947,33.754z M57.595,41.73L79.52,63.654l-0.707,0.707L56.888,42.438
	L57.595,41.73z M51.208,40.458H48.25v-1h2.958V40.458z M48.521,59.208h2.958v1h-2.958V59.208z M53.25,44h-6.5v-1h6.5V44z
	 M53.875,47.208h-8.269v-1h8.269V47.208z M54.167,49.5v1h-8.572v-1H54.167z M46.021,52.768h7.715v1h-7.715V52.768z M46.75,55.958
	h5.875v1H46.75V55.958z"/>
</svg>
