<?xml version="1.0" encoding="utf-8"?>
<!-- Generator: Adobe Illustrator 14.0.0, SVG Export Plug-In . SVG Version: 6.00 Build 43363)  -->
<!DOCTYPE svg PUBLIC "-//W3C//DTD SVG 1.1//EN" "http://www.w3.org/Graphics/SVG/1.1/DTD/svg11.dtd">
<svg version="1.1"
	 id="svg2985" xmlns:dc="http://purl.org/dc/elements/1.1/" xmlns:cc="http://creativecommons.org/ns#" xmlns:rdf="http://www.w3.org/1999/02/22-rdf-syntax-ns#" xmlns:svg="http://www.w3.org/2000/svg" xmlns:sodipodi="http://sodipodi.sourceforge.net/DTD/sodipodi-0.dtd" xmlns:inkscape="http://www.inkscape.org/namespaces/inkscape" inkscape:version="0.48.2 r9819" sodipodi:docname="subtract.svg"
	 xmlns="http://www.w3.org/2000/svg" xmlns:xlink="http://www.w3.org/1999/xlink" x="0px" y="0px" width="64px" height="64px"
	 viewBox="0 0 64 64" enable-background="new 0 0 64 64" xml:space="preserve">
<sodipodi:namedview  id="base" inkscape:cy="32" inkscape:cx="19.46529" inkscape:zoom="3.8890873" borderopacity="1.0" bordercolor="#666666" pagecolor="#ffffff" showgrid="true" inkscape:window-maximized="0" inkscape:window-y="19" inkscape:window-x="1882" inkscape:window-height="919" inkscape:window-width="1307" inkscape:grid-bbox="true" inkscape:document-units="px" inkscape:current-layer="layer4" inkscape:pageshadow="2" inkscape:pageopacity="0.0">
	</sodipodi:namedview>
<sodipodi:namedview  id="base" inkscape:cy="32" inkscape:cx="19.46529" inkscape:zoom="3.8890873" borderopacity="1.0" bordercolor="#666666" pagecolor="#ffffff" showgrid="true" inkscape:window-maximized="0" inkscape:window-y="19" inkscape:window-x="1882" inkscape:window-height="919" inkscape:window-width="1307" inkscape:grid-bbox="true" inkscape:document-units="px" inkscape:current-layer="layer4" inkscape:pageshadow="2" inkscape:pageopacity="0.0">
	</sodipodi:namedview>
<g>
	<path fill="none" stroke="#000000" stroke-linecap="round" stroke-linejoin="round" d="M44.1,15.814
		c-4.673,0-8.914,1.679-12.1,4.404c0.008,0.007,0.017,0.014,0.024,0.021v-0.021v0.021c3.528,3.031,5.751,7.353,5.751,12.167
		c0,4.814-2.223,9.137-5.751,12.168v0.021v-0.021c-0.008,0.008-0.017,0.014-0.024,0.021c3.186,2.727,7.427,4.404,12.1,4.404
		c9.873,0,17.875-7.43,17.875-16.594C61.975,23.242,53.973,15.814,44.1,15.814z"/>
	<path fill="#FFFFFF" stroke="#000000" stroke-linecap="round" stroke-linejoin="round" d="M25.413,32.405
		c0-4.825,2.233-9.155,5.775-12.187c-3.185-2.726-7.426-4.404-12.1-4.404c-9.872,0-17.875,7.428-17.875,16.591
		c0,9.164,8.003,16.594,17.875,16.594c4.674,0,8.915-1.678,12.1-4.404C27.646,41.562,25.413,37.231,25.413,32.405z"/>
	<g>
		<linearGradient id="SVGID_1_" gradientUnits="userSpaceOnUse" x1="32" y1="32.4067" x2="37.751" y2="32.4067">
			<stop  offset="0" style="stop-color:#FFFFFF"/>
			<stop  offset="0.1091" style="stop-color:#000000"/>
		</linearGradient>
		<path fill="url(#SVGID_1_)" stroke="#000000" stroke-linecap="round" stroke-linejoin="round" d="M37.751,32.406
			c0-4.814-2.223-9.136-5.751-12.167v24.335C35.528,41.543,37.751,37.221,37.751,32.406z"/>
		<linearGradient id="SVGID_2_" gradientUnits="userSpaceOnUse" x1="26.2007" y1="32.4067" x2="32" y2="32.4067">
			<stop  offset="0" style="stop-color:#FFFFFF"/>
			<stop  offset="0.1091" style="stop-color:#000000"/>
		</linearGradient>
		<path fill="url(#SVGID_2_)" stroke="#000000" stroke-linecap="round" stroke-linejoin="round" d="M32,20.239
			c-0.008-0.007-0.016-0.014-0.024-0.021c-3.542,3.032-5.775,7.362-5.775,12.188s2.233,9.156,5.775,12.188
			c0.008-0.007,0.017-0.014,0.024-0.021V20.239z"/>
	</g>
</g>
</svg>
