<?xml version="1.0" encoding="utf-8"?>
<!-- Generator: Adobe Illustrator 14.0.0, SVG Export Plug-In . SVG Version: 6.00 Build 43363)  -->
<!DOCTYPE svg PUBLIC "-//W3C//DTD SVG 1.1//EN" "http://www.w3.org/Graphics/SVG/1.1/DTD/svg11.dtd">
<svg version="1.1"
	 id="svg3286" xmlns:dc="http://purl.org/dc/elements/1.1/" xmlns:cc="http://creativecommons.org/ns#" xmlns:rdf="http://www.w3.org/1999/02/22-rdf-syntax-ns#" xmlns:svg="http://www.w3.org/2000/svg" xmlns:sodipodi="http://sodipodi.sourceforge.net/DTD/sodipodi-0.dtd" xmlns:inkscape="http://www.inkscape.org/namespaces/inkscape" inkscape:version="0.48.2 r9819" sodipodi:docname="save.svg"
	 xmlns="http://www.w3.org/2000/svg" xmlns:xlink="http://www.w3.org/1999/xlink" x="0px" y="0px" width="64px" height="64px"
	 viewBox="0 0 64 64" enable-background="new 0 0 64 64" xml:space="preserve">
<sodipodi:namedview  id="base" inkscape:cy="28.546373" inkscape:cx="32.18328" inkscape:zoom="7.7781746" borderopacity="1.0" bordercolor="#666666" pagecolor="#ffffff" showgrid="true" inkscape:window-maximized="0" inkscape:window-y="192" inkscape:window-x="368" inkscape:window-height="666" inkscape:window-width="1037" inkscape:grid-bbox="true" inkscape:document-units="px" inkscape:current-layer="layer1" inkscape:pageshadow="2" inkscape:pageopacity="0.0">
	</sodipodi:namedview>
<g>
	<linearGradient id="SVGID_1_" gradientUnits="userSpaceOnUse" x1="2.1831" y1="33.1074" x2="63.4834" y2="33.1074">
		<stop  offset="0" style="stop-color:#FFFFFF"/>
		<stop  offset="0.4364" style="stop-color:#000000"/>
	</linearGradient>
	<path fill="url(#SVGID_1_)" d="M55.027,30.165c-1.77-4.05-6.323-6.933-11.657-6.933c-1.227,0-2.413,0.154-3.534,0.438
		c-3.039-4.214-8.47-7.02-14.664-7.02c-9.395,0-17.038,6.458-17.238,14.486c-3.439,1.71-5.751,4.904-5.751,8.554
		c0,5.451,5.149,9.873,11.495,9.873h11.495v-3.291h-11.5c-4.22,0-7.656-2.947-7.656-6.582c0-3.115,2.522-5.729,5.914-6.412
		c-0.113-0.591-0.168-1.198-0.168-1.818c0-6.361,6.005-11.519,13.411-11.519c6.058,0,11.174,3.452,12.839,8.187
		c1.47-1.005,3.332-1.604,5.358-1.604c4.437,0,8.093,2.878,8.566,6.582h0.061c4.217,0,7.657,2.948,7.657,6.583
		c0,3.63-3.431,6.582-7.657,6.582H40.499v3.291h11.492c6.345,0,11.492-4.433,11.492-9.873C63.483,35.14,59.901,31.309,55.027,30.165
		z"/>
	<linearGradient id="SVGID_2_" gradientUnits="userSpaceOnUse" x1="23.2563" y1="42.9805" x2="42.4121" y2="42.9805">
		<stop  offset="0" style="stop-color:#FFFFFF"/>
		<stop  offset="0.4364" style="stop-color:#000000"/>
	</linearGradient>
	<polygon fill="url(#SVGID_2_)" points="32.835,31.46 23.256,41.336 29.002,41.336 29.002,54.5 36.666,54.5 36.666,41.336 
		42.412,41.336 	"/>
</g>
</svg>
